<!DOCTYPE svg PUBLIC "-//W3C//DTD SVG 1.1//EN" "http://www.w3.org/Graphics/SVG/1.1/DTD/svg11.dtd"[]><svg xmlns="http://www.w3.org/2000/svg" version="1.1" width="36" height="36" style="shape-rendering:geometricPrecision; text-rendering:geometricPrecision; image-rendering:optimizeQuality; fill-rule:evenodd; clip-rule:evenodd" xmlns:xlink="http://www.w3.org/1999/xlink" viewBox="0 0 512 512"><g><path style="opacity:0.994" fill="#6dbcda" d="M 307.5,159.5 C 307.5,207.833 307.5,256.167 307.5,304.5C 228.833,304.5 150.167,304.5 71.5,304.5C 71.5,309.167 71.5,313.833 71.5,318.5C 87.0091,318.17 102.342,318.504 117.5,319.5C 111.65,326.189 108.316,333.855 107.5,342.5C 92.0953,342.952 76.762,342.452 61.5,341C 53.5,333.667 53.5,326.333 61.5,319C 64.3926,317.851 67.3926,317.351 70.5,317.5C 70.3333,259.832 70.5,202.166 71,144.5C 71.7845,142.714 72.9512,141.214 74.5,140C 150.085,138.34 225.752,138.006 301.5,139C 303.624,140.122 305.457,141.622 307,143.5C 307.499,148.823 307.666,154.156 307.5,159.5 Z" /></g><g><path style="opacity:0.998" fill="#4b9cb2" d="M 307.5,159.5 C 334.835,159.333 362.169,159.5 389.5,160C 406.711,188.253 423.545,216.753 440,245.5C 440.5,257.162 440.667,268.829 440.5,280.5C 436.154,280.334 431.821,280.501 427.5,281C 426.167,289.333 426.167,297.667 427.5,306C 431.821,306.499 436.154,306.666 440.5,306.5C 440.5,310.167 440.5,313.833 440.5,317.5C 420.5,318.167 400.5,318.833 380.5,319.5C 367.366,309.408 354.033,309.075 340.5,318.5C 330.013,317.506 319.346,317.172 308.5,317.5C 308.818,312.968 308.485,308.634 307.5,304.5C 307.5,256.167 307.5,207.833 307.5,159.5 Z" /></g><g><path style="opacity:1" fill="#f6fbfc" d="M 185.5,161.5 C 219.475,162.886 240.975,179.886 250,212.5C 252.205,255.631 231.872,279.964 189,285.5C 150.895,281.394 130.395,260.228 127.5,222C 131.439,186.898 150.772,166.731 185.5,161.5 Z" /></g><g><path style="opacity:1" fill="#71bddc" d="M 183.5,165.5 C 184.833,165.5 186.167,165.5 187.5,165.5C 187.5,173.833 187.5,182.167 187.5,190.5C 179.833,190.5 172.167,190.5 164.5,190.5C 167.506,179.512 173.839,171.178 183.5,165.5 Z" /></g><g><path style="opacity:1" fill="#74bedc" d="M 190.5,165.5 C 196.927,166.298 202.094,169.298 206,174.5C 209.34,179.175 212.173,184.175 214.5,189.5C 206.528,190.498 198.528,190.831 190.5,190.5C 190.5,182.167 190.5,173.833 190.5,165.5 Z" /></g><g><path style="opacity:1" fill="#74bfdc" d="M 170.5,167.5 C 171.873,167.343 173.207,167.51 174.5,168C 168.223,174.283 163.557,181.617 160.5,190C 154.141,190.831 147.807,190.664 141.5,189.5C 149.258,179.475 158.925,172.142 170.5,167.5 Z" /></g><g><path style="opacity:1" fill="#75bfdc" d="M 202.5,167.5 C 216.538,170.125 227.871,177.458 236.5,189.5C 230.167,190.833 223.833,190.833 217.5,189.5C 214.466,180.747 209.466,173.413 202.5,167.5 Z" /></g><g><path style="opacity:1" fill="#c5ebec" d="M 377.5,180.5 C 359.956,188.271 342.622,196.605 325.5,205.5C 324.334,216.151 324.168,226.818 325,237.5C 347.133,226.186 368.967,214.52 390.5,202.5C 392.56,205.24 394.226,208.24 395.5,211.5C 371.678,223.244 348.011,235.244 324.5,247.5C 323.337,224.67 323.17,201.67 324,178.5C 324.833,177 326,175.833 327.5,175C 342.833,174.333 358.167,174.333 373.5,175C 375.464,176.451 376.797,178.284 377.5,180.5 Z" /></g><g><path style="opacity:1" fill="#fefefe" d="M 377.5,180.5 C 381.833,187.833 386.167,195.167 390.5,202.5C 368.967,214.52 347.133,226.186 325,237.5C 324.168,226.818 324.334,216.151 325.5,205.5C 342.622,196.605 359.956,188.271 377.5,180.5 Z" /></g><g><path style="opacity:1" fill="#6ebcdb" d="M 155.5,223.5 C 147.5,223.5 139.5,223.5 131.5,223.5C 131.5,221.167 131.5,218.833 131.5,216.5C 131.818,208.546 134.151,201.213 138.5,194.5C 145.468,193.503 152.468,193.17 159.5,193.5C 156.434,203.235 155.101,213.235 155.5,223.5 Z" /></g><g><path style="opacity:1" fill="#70bddb" d="M 162.5,193.5 C 170.833,193.5 179.167,193.5 187.5,193.5C 187.5,203.833 187.5,214.167 187.5,224.5C 177.833,224.5 168.167,224.5 158.5,224.5C 158.208,213.923 159.542,203.59 162.5,193.5 Z" /></g><g><path style="opacity:1" fill="#71bddb" d="M 190.5,193.5 C 198.833,193.5 207.167,193.5 215.5,193.5C 218.859,203.532 220.192,213.866 219.5,224.5C 209.833,224.5 200.167,224.5 190.5,224.5C 190.5,214.167 190.5,203.833 190.5,193.5 Z" /></g><g><path style="opacity:1" fill="#6ebcdb" d="M 247.5,223.5 C 239.5,223.5 231.5,223.5 223.5,223.5C 223.806,220.615 223.473,217.948 222.5,215.5C 222.194,208.116 220.861,200.949 218.5,194C 225.5,193.333 232.5,193.333 239.5,194C 245.052,203.04 247.718,212.873 247.5,223.5 Z" /></g><g><path style="opacity:1" fill="#fcfefe" d="M 395.5,211.5 C 397.083,213.663 398.416,215.996 399.5,218.5C 378.527,229.32 357.527,240.154 336.5,251C 333.854,251.497 331.187,251.664 328.5,251.5C 326.167,251.167 324.833,249.833 324.5,247.5C 348.011,235.244 371.678,223.244 395.5,211.5 Z" /></g><g><path style="opacity:1" fill="#c5ebed" d="M 399.5,218.5 C 404.809,225.765 409.642,233.432 414,241.5C 414.667,244.167 414.667,246.833 414,249.5C 413.097,250.701 411.931,251.535 410.5,252C 382.997,252.83 355.664,252.664 328.5,251.5C 331.187,251.664 333.854,251.497 336.5,251C 357.527,240.154 378.527,229.32 399.5,218.5 Z" /></g><g><path style="opacity:1" fill="#add9ea" d="M 131.5,216.5 C 131.5,218.833 131.5,221.167 131.5,223.5C 139.5,223.5 147.5,223.5 155.5,223.5C 147.35,224.493 139.017,224.826 130.5,224.5C 130.194,221.615 130.527,218.948 131.5,216.5 Z" /></g><g><path style="opacity:1" fill="#acd8ea" d="M 222.5,215.5 C 223.473,217.948 223.806,220.615 223.5,223.5C 231.5,223.5 239.5,223.5 247.5,223.5C 239.35,224.493 231.017,224.826 222.5,224.5C 222.5,221.5 222.5,218.5 222.5,215.5 Z" /></g><g><path style="opacity:1" fill="#cee8f3" d="M 187.5,227.5 C 178.167,227.5 168.833,227.5 159.5,227.5C 159.5,230.167 159.5,232.833 159.5,235.5C 158.523,232.713 158.19,229.713 158.5,226.5C 168.348,226.173 178.014,226.506 187.5,227.5 Z" /></g><g><path style="opacity:1" fill="#6fbddb" d="M 131.5,227.5 C 139.5,227.5 147.5,227.5 155.5,227.5C 156.145,237.352 157.812,247.019 160.5,256.5C 153.825,256.666 147.158,256.5 140.5,256C 134.794,247.34 131.794,237.84 131.5,227.5 Z" /></g><g><path style="opacity:1" fill="#6ebcdb" d="M 187.5,227.5 C 187.5,237.167 187.5,246.833 187.5,256.5C 179.5,256.5 171.5,256.5 163.5,256.5C 161.397,249.654 160.064,242.654 159.5,235.5C 159.5,232.833 159.5,230.167 159.5,227.5C 168.833,227.5 178.167,227.5 187.5,227.5 Z" /></g><g><path style="opacity:1" fill="#6fbddb" d="M 190.5,227.5 C 200.167,227.5 209.833,227.5 219.5,227.5C 218.991,237.378 217.324,247.045 214.5,256.5C 206.5,256.5 198.5,256.5 190.5,256.5C 190.5,246.833 190.5,237.167 190.5,227.5 Z" /></g><g><path style="opacity:1" fill="#70bddb" d="M 222.5,227.5 C 230.833,227.5 239.167,227.5 247.5,227.5C 246.484,237.564 243.317,246.898 238,255.5C 231.223,256.811 224.39,256.811 217.5,255.5C 220.677,246.44 222.343,237.106 222.5,227.5 Z" /></g><g><path style="opacity:1" fill="#72bedc" d="M 143.5,260.5 C 149.645,259.51 155.978,259.177 162.5,259.5C 164.921,267.5 169.254,274.333 175.5,280C 162.891,276.854 152.224,270.354 143.5,260.5 Z" /></g><g><path style="opacity:1" fill="#6fbcdb" d="M 165.5,259.5 C 172.833,259.5 180.167,259.5 187.5,259.5C 187.5,266.833 187.5,274.167 187.5,281.5C 179.278,279.63 173.112,274.963 169,267.5C 167.546,264.929 166.38,262.262 165.5,259.5 Z" /></g><g><path style="opacity:1" fill="#70bddb" d="M 190.5,259.5 C 197.863,259.169 205.197,259.503 212.5,260.5C 209.015,271.654 201.682,278.654 190.5,281.5C 190.5,274.167 190.5,266.833 190.5,259.5 Z" /></g><g><path style="opacity:1" fill="#73bedc" d="M 216.5,259.5 C 222.509,259.334 228.509,259.501 234.5,260C 226.343,270.742 215.677,277.409 202.5,280C 208.981,274.361 213.648,267.528 216.5,259.5 Z" /></g><g><path style="opacity:1" fill="#aedfe2" d="M 336.5,269.5 C 342.509,269.334 348.509,269.501 354.5,270C 355.833,271.667 355.833,273.333 354.5,275C 348.5,275.667 342.5,275.667 336.5,275C 335.248,273.172 335.248,271.339 336.5,269.5 Z" /></g><g><path style="opacity:1" fill="#f9fcfc" d="M 440.5,280.5 C 440.5,289.167 440.5,297.833 440.5,306.5C 436.154,306.666 431.821,306.499 427.5,306C 426.167,297.667 426.167,289.333 427.5,281C 431.821,280.501 436.154,280.334 440.5,280.5 Z" /></g><g><path style="opacity:1" fill="#5babc4" d="M 307.5,304.5 C 308.485,308.634 308.818,312.968 308.5,317.5C 319.346,317.172 330.013,317.506 340.5,318.5C 340.5,319.167 340.167,319.5 339.5,319.5C 279.167,318.167 218.833,318.167 158.5,319.5C 144.846,308.835 131.18,308.835 117.5,319.5C 102.342,318.504 87.0091,318.17 71.5,318.5C 71.5,313.833 71.5,309.167 71.5,304.5C 150.167,304.5 228.833,304.5 307.5,304.5 Z" /></g><g><path style="opacity:0.981" fill="#333334" d="M 158.5,319.5 C 165.314,325.596 168.648,333.263 168.5,342.5C 168.133,356.394 161.467,365.894 148.5,371C 131.303,375.387 118.47,369.887 110,354.5C 108.53,350.622 107.697,346.622 107.5,342.5C 108.316,333.855 111.65,326.189 117.5,319.5C 131.18,308.835 144.846,308.835 158.5,319.5 Z" /></g><g><path style="opacity:0.979" fill="#333334" d="M 380.5,319.5 C 386.883,325.925 390.217,333.591 390.5,342.5C 388.76,361.073 378.594,371.073 360,372.5C 347.396,372.23 338.062,366.564 332,355.5C 330.1,351.368 329.267,347.034 329.5,342.5C 329.84,333.491 333.173,325.824 339.5,319.5C 340.167,319.5 340.5,319.167 340.5,318.5C 354.033,309.075 367.366,309.408 380.5,319.5 Z" /></g><g><path style="opacity:0.978" fill="#6cbbda" d="M 440.5,317.5 C 451.134,317.633 455.968,322.966 455,333.5C 453.969,336.539 452.135,339.039 449.5,341C 429.901,342.463 410.234,342.963 390.5,342.5C 390.217,333.591 386.883,325.925 380.5,319.5C 400.5,318.833 420.5,318.167 440.5,317.5 Z" /></g><g><path style="opacity:0.981" fill="#6cbbda" d="M 339.5,319.5 C 333.173,325.824 329.84,333.491 329.5,342.5C 275.833,342.5 222.167,342.5 168.5,342.5C 168.648,333.263 165.314,325.596 158.5,319.5C 218.833,318.167 279.167,318.167 339.5,319.5 Z" /></g><g><path style="opacity:1" fill="#4c4c4c" d="M 134.5,325.5 C 148.823,325.321 155.323,332.321 154,346.5C 149.608,356.612 142.108,360.112 131.5,357C 122.17,350.819 120.004,342.652 125,332.5C 127.825,329.524 130.992,327.191 134.5,325.5 Z" /></g><g><path style="opacity:1" fill="#4c4c4c" d="M 356.5,325.5 C 370.85,326.013 377.017,333.347 375,347.5C 369.896,357.868 362.063,360.701 351.5,356C 339.58,343.515 341.246,333.348 356.5,325.5 Z" /></g></svg>