<!DOCTYPE svg PUBLIC "-//W3C//DTD SVG 1.1//EN" "http://www.w3.org/Graphics/SVG/1.1/DTD/svg11.dtd"[]><svg xmlns="http://www.w3.org/2000/svg" version="1.1" width="60" height="60" style="shape-rendering:geometricPrecision; text-rendering:geometricPrecision; image-rendering:optimizeQuality; fill-rule:evenodd; clip-rule:evenodd" xmlns:xlink="http://www.w3.org/1999/xlink" viewBox="0 0 5000 5000"><g><path style="opacity:1" fill="#068406" d="M 4686.5,1405.5 C 4686.83,2134.67 4686.5,2863.67 4685.5,3592.5C 4424.99,3501.19 4156.65,3451.69 3880.5,3444C 3695.01,3438.63 3510.01,3445.96 3325.5,3466C 3148.35,3485.21 2972.01,3510.21 2796.5,3541C 2578.93,3579.85 2361.26,3618.18 2143.5,3656C 1943.62,3690.44 1742.62,3716.11 1540.5,3733C 1353.54,3748.26 1166.54,3748.93 979.5,3735C 750.724,3717.72 528.391,3670.55 312.5,3593.5C 312.167,2864.33 312.5,2135.33 313.5,1406.5C 574.014,1497.81 842.347,1547.31 1118.5,1555C 1303.99,1560.37 1488.99,1553.04 1673.5,1533C 1850.65,1513.79 2026.99,1488.79 2202.5,1458C 2420.07,1419.15 2637.74,1380.82 2855.5,1343C 3055.38,1308.56 3256.38,1282.89 3458.5,1266C 3641.44,1251.19 3824.44,1250.19 4007.5,1263C 4240.42,1279.62 4466.75,1327.12 4686.5,1405.5 Z" /></g><g><path style="opacity:1" fill="#83c182" d="M 4686.5,1405.5 C 4687.17,1770 4687.5,2134.67 4687.5,2499.5C 4687.17,2864.17 4686.83,3228.83 4686.5,3593.5C 4685.89,3593.38 4685.56,3593.04 4685.5,3592.5C 4686.5,2863.67 4686.83,2134.67 4686.5,1405.5 Z" /></g><g><path style="opacity:1" fill="#82c182" d="M 313.5,1406.5 C 312.5,2135.33 312.167,2864.33 312.5,3593.5C 311.833,3229 311.5,2864.33 311.5,2499.5C 311.833,2134.83 312.167,1770.17 312.5,1405.5C 313.107,1405.62 313.44,1405.96 313.5,1406.5 Z" /></g><g><path style="opacity:1" fill="#29bb2a" d="M 3715.5,1516.5 C 3751.83,1516.33 3788.17,1516.5 3824.5,1517C 3861.17,1518.14 3897.84,1519.31 3934.5,1520.5C 3899,1642.14 3915.16,1756.47 3983,1863.5C 4051.73,1962.65 4144.23,2029.15 4260.5,2063C 4314.18,2078.08 4368.85,2083.58 4424.5,2079.5C 4424.67,2307.5 4424.5,2535.5 4424,2763.5C 4340.05,2714.59 4250.88,2701.42 4156.5,2724C 4067.05,2751.48 4000.55,2806.65 3957,2889.5C 3910.43,2984.04 3902.93,3081.7 3934.5,3182.5C 3725.31,3174.57 3516.64,3182.07 3308.5,3205C 3182.08,3218.92 3056.08,3235.92 2930.5,3256C 2719.46,3291.28 2508.79,3328.28 2298.5,3367C 2130.51,3397.25 1961.84,3423.25 1792.5,3445C 1643.05,3463.73 1493.05,3475.73 1342.5,3481C 1252.47,3483.4 1162.47,3482.57 1072.5,3478.5C 1069.5,3478.17 1066.5,3477.83 1063.5,3477.5C 1094.94,3377.16 1088.11,3279.49 1043,3184.5C 996.738,3094.24 928.904,3025.07 839.5,2977C 756.715,2932.96 668.549,2913.79 575,2919.5C 574.167,2691.83 574.333,2464.17 575.5,2236.5C 653.636,2281.24 736.97,2295.41 825.5,2279C 919.203,2255.27 989.703,2201.43 1037,2117.5C 1087.37,2020.65 1096.53,1919.98 1064.5,1815.5C 1212.6,1822.22 1360.6,1820.39 1508.5,1810C 1665.18,1798.11 1821.18,1780.44 1976.5,1757C 2033.51,1748.11 2090.51,1739.11 2147.5,1730C 2360.62,1692.84 2573.62,1655.18 2786.5,1617C 2942.59,1590.07 3099.25,1567.07 3256.5,1548C 3409.13,1529.74 3562.13,1519.24 3715.5,1516.5 Z" /></g><g><path style="opacity:1" fill="#fefefe" d="M 4266.5,1522.5 C 4315.67,1522.6 4358.34,1539.1 4394.5,1572C 4428.1,1603.69 4449.94,1642.19 4460,1687.5C 4468.07,1726.69 4461.41,1763.03 4440,1796.5C 4419.07,1823.56 4391.57,1839.72 4357.5,1845C 4279.25,1849.79 4218.08,1819.96 4174,1755.5C 4143.73,1708.15 4137.4,1657.82 4155,1604.5C 4176.51,1555.81 4213.68,1528.48 4266.5,1522.5 Z" /></g><g><path style="opacity:1" fill="#fefefe" d="M 645.5,1730.5 C 723.046,1728.35 783.213,1759.35 826,1823.5C 853.609,1867.49 860.275,1914.49 846,1964.5C 828.551,2012.65 794.718,2041.81 744.5,2052C 696.649,2057.27 653.983,2044.94 616.5,2015C 559.005,1968.17 532.505,1907.67 537,1833.5C 549.367,1773.96 585.534,1739.63 645.5,1730.5 Z" /></g><g><path style="opacity:1" fill="#068406" d="M 2570.5,1888.5 C 2673.86,1882.13 2770.53,1904.3 2860.5,1955C 2969.33,2021.87 3042.16,2116.71 3079,2239.5C 3102.85,2327.16 3107.18,2415.83 3092,2505.5C 3069.87,2621.73 3022.87,2726.4 2951,2819.5C 2849.99,2948.77 2720.83,3037.6 2563.5,3086C 2496.18,3105.43 2427.51,3113.43 2357.5,3110C 2201.79,3098.09 2078.62,3029.26 1988,2903.5C 1933.88,2821.42 1904.21,2731.08 1899,2632.5C 1894.25,2511.84 1919.92,2398.17 1976,2291.5C 2059.17,2138 2179.67,2023.83 2337.5,1949C 2411.71,1915.2 2489.38,1895.03 2570.5,1888.5 Z" /></g><g><path style="opacity:1" fill="#fefefe" d="M 2512.5,1990.5 C 2537.69,1989.16 2553.86,2000.5 2561,2024.5C 2561.5,2035.49 2561.67,2046.49 2561.5,2057.5C 2628.34,2054.77 2691.34,2068.93 2750.5,2100C 2774.82,2115.62 2781.99,2137.12 2772,2164.5C 2757.45,2195.54 2732.95,2209.7 2698.5,2207C 2683.38,2200.27 2668.38,2193.27 2653.5,2186C 2622.88,2172.73 2590.88,2165.56 2557.5,2164.5C 2557.33,2248.83 2557.5,2333.17 2558,2417.5C 2608.5,2419 2657.34,2428.83 2704.5,2447C 2772.3,2477.72 2805.3,2530.55 2803.5,2605.5C 2801.94,2669.05 2780.1,2724.39 2738,2771.5C 2689.28,2822.96 2630.45,2857.62 2561.5,2875.5C 2561.67,2900.84 2561.5,2926.17 2561,2951.5C 2554.89,2977.61 2539.05,2994.78 2513.5,3003C 2496.27,3006.15 2481.77,3001.31 2470,2988.5C 2465.77,2982.48 2463.1,2975.81 2462,2968.5C 2461.5,2942.84 2461.33,2917.17 2461.5,2891.5C 2370.67,2897.79 2287.34,2875.96 2211.5,2826C 2197.27,2811.6 2192.44,2794.43 2197,2774.5C 2204.94,2748.89 2221.77,2732.39 2247.5,2725C 2258.37,2722.66 2269.04,2723.32 2279.5,2727C 2308.38,2746.61 2339.38,2762.28 2372.5,2774C 2402.43,2783.57 2433.09,2787.74 2464.5,2786.5C 2464.5,2700.17 2464.5,2613.83 2464.5,2527.5C 2428.96,2525.92 2393.96,2520.76 2359.5,2512C 2330.72,2504.64 2304.39,2492.31 2280.5,2475C 2246.81,2446.78 2227.97,2410.62 2224,2366.5C 2218.37,2311.01 2230.37,2259.67 2260,2212.5C 2297.66,2156.41 2347.82,2115.57 2410.5,2090C 2427.03,2082.99 2444.03,2077.49 2461.5,2073.5C 2456.46,2044.45 2465.12,2020.62 2487.5,2002C 2495.18,1996.51 2503.51,1992.67 2512.5,1990.5 Z" /></g><g><path style="opacity:1" fill="#078406" d="M 2460.5,2176.5 C 2461.83,2176.5 2463.17,2176.5 2464.5,2176.5C 2464.5,2254.83 2464.5,2333.17 2464.5,2411.5C 2437.98,2409.43 2412.31,2403.6 2387.5,2394C 2352.07,2378.83 2335.4,2351.83 2337.5,2313C 2338.39,2280.72 2349.89,2252.89 2372,2229.5C 2397.24,2204.8 2426.74,2187.13 2460.5,2176.5 Z" /></g><g><path style="opacity:1" fill="#068406" d="M 2561.5,2533.5 C 2589.83,2535.87 2617.16,2542.37 2643.5,2553C 2675.76,2568.84 2690.76,2594.84 2688.5,2631C 2688.04,2665.74 2675.87,2695.57 2652,2720.5C 2625.98,2746.27 2595.15,2763.94 2559.5,2773.5C 2558.5,2693.67 2558.17,2613.67 2558.5,2533.5C 2559.5,2533.5 2560.5,2533.5 2561.5,2533.5 Z" /></g><g><path style="opacity:1" fill="#83c182" d="M 2561.5,2533.5 C 2560.5,2533.5 2559.5,2533.5 2558.5,2533.5C 2558.17,2613.67 2558.5,2693.67 2559.5,2773.5C 2559.44,2774.04 2559.11,2774.38 2558.5,2774.5C 2557.5,2693.84 2557.17,2613.17 2557.5,2532.5C 2559.1,2532.23 2560.43,2532.57 2561.5,2533.5 Z" /></g><g><path style="opacity:1" fill="#fefefe" d="M 4260.5,2945.5 C 4309.51,2943.34 4352.51,2958.17 4389.5,2990C 4429.76,3025.68 4453.93,3070.18 4462,3123.5C 4466.4,3161.23 4457.4,3195.23 4435,3225.5C 4403.66,3258.62 4365.16,3272.78 4319.5,3268C 4256.84,3259.43 4208.01,3228.93 4173,3176.5C 4144.22,3130.39 4137.89,3081.39 4154,3029.5C 4173.82,2981.52 4209.32,2953.52 4260.5,2945.5 Z" /></g><g><path style="opacity:1" fill="#fefefe" d="M 647.5,3152.5 C 724.988,3151.49 784.822,3183.15 827,3247.5C 854.777,3293.27 860.443,3341.6 844,3392.5C 824.619,3438.94 790.119,3466.44 740.5,3475C 692.701,3478.73 650.368,3465.4 613.5,3435C 564.602,3394.2 538.602,3341.87 535.5,3278C 537.002,3216.2 567.002,3175.87 625.5,3157C 632.967,3155.46 640.301,3153.96 647.5,3152.5 Z" /></g></svg>