<?xml version="1.0" encoding="UTF-8"?>
<!DOCTYPE svg PUBLIC "-//W3C//DTD SVG 1.1//EN" "http://www.w3.org/Graphics/SVG/1.1/DTD/svg11.dtd">
<svg xmlns="http://www.w3.org/2000/svg" version="1.1" width="239px" height="240px" style="shape-rendering:geometricPrecision; text-rendering:geometricPrecision; image-rendering:optimizeQuality; fill-rule:evenodd; clip-rule:evenodd" xmlns:xlink="http://www.w3.org/1999/xlink">
<g><path style="opacity:0.993" fill="#4d4d4d" d="M 113.5,-0.5 C 117.167,-0.5 120.833,-0.5 124.5,-0.5C 136.14,10.4729 147.473,21.8063 158.5,33.5C 177.08,53.5819 196.247,73.2486 216,92.5C 216.399,92.2716 216.565,91.9382 216.5,91.5C 224.194,98.5271 231.527,105.86 238.5,113.5C 238.5,116.833 238.5,120.167 238.5,123.5C 233.335,130.957 226.668,132.457 218.5,128C 216.627,126.296 214.96,124.463 213.5,122.5C 212.5,120.833 211.167,119.5 209.5,118.5C 201.833,110.167 193.833,102.167 185.5,94.5C 178.167,86.5 170.5,78.8333 162.5,71.5C 148.202,56.7015 133.702,42.0348 119,27.5C 104.298,42.0348 89.7981,56.7015 75.5,71.5C 67.5,78.8333 59.8333,86.5 52.5,94.5C 44.1667,102.167 36.1667,110.167 28.5,118.5C 26.7376,119.262 25.7376,120.596 25.5,122.5C 21.5753,126.878 16.742,129.544 11,130.5C 5.73261,130.378 1.89928,128.045 -0.5,123.5C -0.5,120.167 -0.5,116.833 -0.5,113.5C 7.80628,104.527 16.4729,95.8604 25.5,87.5C 39.5,73.8333 53.5,60.1667 67.5,46.5C 82.8333,31.8333 97.8333,16.8333 112.5,1.5C 112.833,0.833333 113.167,0.166667 113.5,-0.5 Z"/></g>
<g><path style="opacity:0.973" fill="#a90000" d="M 67.5,44.5 C 67.5,45.1667 67.5,45.8333 67.5,46.5C 53.5,60.1667 39.5,73.8333 25.5,87.5C 25.0205,64.0763 25.5205,40.743 27,17.5C 27.9025,16.2986 29.0692,15.4652 30.5,15C 41.9308,14.0448 53.2642,14.3781 64.5,16C 65.7014,16.9025 66.5348,18.0692 67,19.5C 67.4997,27.8267 67.6664,36.16 67.5,44.5 Z"/></g>
<g><path style="opacity:0.988" fill="#787878" d="M 112.5,1.5 C 97.8333,16.8333 82.8333,31.8333 67.5,46.5C 67.5,45.8333 67.5,45.1667 67.5,44.5C 81.9652,30.5352 96.2985,16.3685 110.5,2C 111.094,1.53566 111.761,1.36899 112.5,1.5 Z"/></g>
<g><path style="opacity:0.988" fill="#818181" d="M 158.5,33.5 C 178.167,52.5 197.5,71.8333 216.5,91.5C 216.565,91.9382 216.399,92.2716 216,92.5C 196.247,73.2486 177.08,53.5819 158.5,33.5 Z"/></g>
<g><path style="opacity:1" fill="#f6f6f6" d="M 162.5,71.5 C 133.5,72.8333 104.5,72.8333 75.5,71.5C 89.7981,56.7015 104.298,42.0348 119,27.5C 133.702,42.0348 148.202,56.7015 162.5,71.5 Z"/></g>
<g><path style="opacity:1" fill="#f0f0f0" d="M 75.5,71.5 C 104.5,72.8333 133.5,72.8333 162.5,71.5C 170.5,78.8333 178.167,86.5 185.5,94.5C 141.167,95.8333 96.8333,95.8333 52.5,94.5C 59.8333,86.5 67.5,78.8333 75.5,71.5 Z"/></g>
<g><path style="opacity:1" fill="#eaeaea" d="M 52.5,94.5 C 96.8333,95.8333 141.167,95.8333 185.5,94.5C 193.833,102.167 201.833,110.167 209.5,118.5C 149.167,119.833 88.8333,119.833 28.5,118.5C 36.1667,110.167 44.1667,102.167 52.5,94.5 Z"/></g>
<g><path style="opacity:0.992" fill="#e3e3e4" d="M 28.5,118.5 C 88.8333,119.833 149.167,119.833 209.5,118.5C 211.167,119.5 212.5,120.833 213.5,122.5C 212.509,128.979 212.176,135.646 212.5,142.5C 211.566,143.568 211.232,144.901 211.5,146.5C 195.833,146.5 180.167,146.5 164.5,146.5C 164.824,139.646 164.491,132.979 163.5,126.5C 162.746,123.909 161.079,122.076 158.5,121C 131.833,120.333 105.167,120.333 78.5,121C 76.5359,122.451 75.2026,124.284 74.5,126.5C 73.5093,132.979 73.176,139.646 73.5,146.5C 57.8333,146.5 42.1667,146.5 26.5,146.5C 26.7678,148.099 26.4345,149.432 25.5,150.5C 25.5,141.167 25.5,131.833 25.5,122.5C 25.7376,120.596 26.7376,119.262 28.5,118.5 Z"/></g>
<g><path style="opacity:1" fill="#97b8ea" d="M 163.5,126.5 C 163.5,127.833 163.5,129.167 163.5,130.5C 160.941,130.198 158.607,130.532 156.5,131.5C 155.684,129.856 154.35,128.69 152.5,128C 130.167,127.333 107.833,127.333 85.5,128C 83.6498,128.69 82.3164,129.856 81.5,131.5C 79.3926,130.532 77.0593,130.198 74.5,130.5C 74.5,129.167 74.5,127.833 74.5,126.5C 75.2026,124.284 76.5359,122.451 78.5,121C 105.167,120.333 131.833,120.333 158.5,121C 161.079,122.076 162.746,123.909 163.5,126.5 Z"/></g>
<g><path style="opacity:1" fill="#b6cdef" d="M 156.5,131.5 C 156.5,131.833 156.5,132.167 156.5,132.5C 156.5,134.833 156.5,137.167 156.5,139.5C 131.5,139.5 106.5,139.5 81.5,139.5C 81.5,137.167 81.5,134.833 81.5,132.5C 81.5,132.167 81.5,131.833 81.5,131.5C 82.3164,129.856 83.6498,128.69 85.5,128C 107.833,127.333 130.167,127.333 152.5,128C 154.35,128.69 155.684,129.856 156.5,131.5 Z"/></g>
<g><path style="opacity:0.991" fill="#d9d9d9" d="M 73.5,146.5 C 73.5,162.167 73.5,177.833 73.5,193.5C 57.5,193.5 41.5,193.5 25.5,193.5C 25.5,179.167 25.5,164.833 25.5,150.5C 26.4345,149.432 26.7678,148.099 26.5,146.5C 42.1667,146.5 57.8333,146.5 73.5,146.5 Z"/></g>
<g><path style="opacity:1" fill="#87a9dd" d="M 74.5,130.5 C 77.0593,130.198 79.3926,130.532 81.5,131.5C 81.5,131.833 81.5,132.167 81.5,132.5C 80.3221,144.01 80.3221,155.677 81.5,167.5C 88.5079,167.666 95.5079,167.5 102.5,167C 113.482,161.004 124.482,161.004 135.5,167C 142.492,167.5 149.492,167.666 156.5,167.5C 157.678,155.677 157.678,144.01 156.5,132.5C 156.5,132.167 156.5,131.833 156.5,131.5C 158.607,130.532 160.941,130.198 163.5,130.5C 163.5,145.167 163.5,159.833 163.5,174.5C 161.05,174.298 158.717,174.631 156.5,175.5C 150.903,168.048 144.903,167.715 138.5,174.5C 122.163,174.333 105.83,174.5 89.5,175C 86.7819,176.768 83.9486,176.934 81,175.5C 80.502,172.518 80.3354,169.518 80.5,166.5C 78.5,166.5 76.5,166.5 74.5,166.5C 74.5,154.5 74.5,142.5 74.5,130.5 Z"/></g>
<g><path style="opacity:1" fill="#95b4e2" d="M 81.5,132.5 C 81.5,134.833 81.5,137.167 81.5,139.5C 81.5,142.167 81.5,144.833 81.5,147.5C 81.5,150.833 81.5,154.167 81.5,157.5C 106.5,157.5 131.5,157.5 156.5,157.5C 156.5,154.167 156.5,150.833 156.5,147.5C 156.5,144.833 156.5,142.167 156.5,139.5C 156.5,137.167 156.5,134.833 156.5,132.5C 157.678,144.01 157.678,155.677 156.5,167.5C 149.492,167.666 142.492,167.5 135.5,167C 124.482,161.004 113.482,161.004 102.5,167C 95.5079,167.5 88.5079,167.666 81.5,167.5C 80.3221,155.677 80.3221,144.01 81.5,132.5 Z"/></g>
<g><path style="opacity:1" fill="#a0bce6" d="M 81.5,147.5 C 106.5,147.5 131.5,147.5 156.5,147.5C 156.5,150.833 156.5,154.167 156.5,157.5C 131.5,157.5 106.5,157.5 81.5,157.5C 81.5,154.167 81.5,150.833 81.5,147.5 Z"/></g>
<g><path style="opacity:1" fill="#acc5eb" d="M 81.5,139.5 C 106.5,139.5 131.5,139.5 156.5,139.5C 156.5,142.167 156.5,144.833 156.5,147.5C 131.5,147.5 106.5,147.5 81.5,147.5C 81.5,144.833 81.5,142.167 81.5,139.5 Z"/></g>
<g><path style="opacity:1" fill="#4f5052" d="M 156.5,175.5 C 157.515,186.327 152.849,190.493 142.5,188C 138.026,184.413 136.693,179.913 138.5,174.5C 144.903,167.715 150.903,168.048 156.5,175.5 Z"/></g>
<g><path style="opacity:0.99" fill="#d9d9d9" d="M 212.5,142.5 C 212.5,160.833 212.5,179.167 212.5,197.5C 211.566,196.432 211.232,195.099 211.5,193.5C 195.833,193.5 180.167,193.5 164.5,193.5C 164.5,177.833 164.5,162.167 164.5,146.5C 180.167,146.5 195.833,146.5 211.5,146.5C 211.232,144.901 211.566,143.568 212.5,142.5 Z"/></g>
<g><path style="opacity:1" fill="#919191" d="M 144.5,172.5 C 147.564,172.144 150.231,172.977 152.5,175C 146,174.833 142.833,178 143,184.5C 139.477,179.974 139.977,175.974 144.5,172.5 Z"/></g>
<g><path style="opacity:0.992" fill="#d1d1d1" d="M 25.5,193.5 C 41.5,193.5 57.5,193.5 73.5,193.5C 73.5,201.5 73.5,209.5 73.5,217.5C 57.5,217.5 41.5,217.5 25.5,217.5C 25.5,209.5 25.5,201.5 25.5,193.5 Z"/></g>
<g><path style="opacity:0.993" fill="#d1d1d1" d="M 164.5,193.5 C 180.167,193.5 195.833,193.5 211.5,193.5C 211.232,195.099 211.566,196.432 212.5,197.5C 212.5,204.167 212.5,210.833 212.5,217.5C 196.5,217.5 180.5,217.5 164.5,217.5C 164.5,209.5 164.5,201.5 164.5,193.5 Z"/></g>
<g><path style="opacity:1" fill="#7a9ed3" d="M 74.5,166.5 C 76.5,166.5 78.5,166.5 80.5,166.5C 80.3354,169.518 80.502,172.518 81,175.5C 83.9486,176.934 86.7819,176.768 89.5,175C 105.83,174.5 122.163,174.333 138.5,174.5C 136.693,179.913 138.026,184.413 142.5,188C 152.849,190.493 157.515,186.327 156.5,175.5C 158.717,174.631 161.05,174.298 163.5,174.5C 163.5,184.833 163.5,195.167 163.5,205.5C 133.833,205.5 104.167,205.5 74.5,205.5C 74.5,192.5 74.5,179.5 74.5,166.5 Z"/></g>
<g><path style="opacity:0.99" fill="#cacbcc" d="M 74.5,126.5 C 74.5,127.833 74.5,129.167 74.5,130.5C 74.5,142.5 74.5,154.5 74.5,166.5C 74.5,179.5 74.5,192.5 74.5,205.5C 74.5,216.5 74.5,227.5 74.5,238.5C 59.4963,238.667 44.4963,238.5 29.5,238C 28,237.167 26.8333,236 26,234.5C 25.5006,228.843 25.3339,223.176 25.5,217.5C 41.5,217.5 57.5,217.5 73.5,217.5C 73.5,209.5 73.5,201.5 73.5,193.5C 73.5,177.833 73.5,162.167 73.5,146.5C 73.176,139.646 73.5093,132.979 74.5,126.5 Z"/></g>
<g><path style="opacity:0.989" fill="#cacbcc" d="M 163.5,126.5 C 164.491,132.979 164.824,139.646 164.5,146.5C 164.5,162.167 164.5,177.833 164.5,193.5C 164.5,201.5 164.5,209.5 164.5,217.5C 180.5,217.5 196.5,217.5 212.5,217.5C 212.666,223.176 212.499,228.843 212,234.5C 210.833,235.667 209.667,236.833 208.5,238C 193.504,238.5 178.504,238.667 163.5,238.5C 163.5,227.5 163.5,216.5 163.5,205.5C 163.5,195.167 163.5,184.833 163.5,174.5C 163.5,159.833 163.5,145.167 163.5,130.5C 163.5,129.167 163.5,127.833 163.5,126.5 Z"/></g>
<g><path style="opacity:1" fill="#6f93ca" d="M 74.5,205.5 C 104.167,205.5 133.833,205.5 163.5,205.5C 163.5,216.5 163.5,227.5 163.5,238.5C 133.833,238.5 104.167,238.5 74.5,238.5C 74.5,227.5 74.5,216.5 74.5,205.5 Z"/></g>
</svg>
